# AST/ASF file generated using VICON BodyLanguage
# -----------------------------------------------
:version 1.10
:name VICON
:units
  mass 1.0
  length 0.1
  angle deg
:documentation
   .ast/.asf automatically generated from VICON data using
   VICON BodyBuilder and BodyLanguage model FULLBODY5.MOD
:root
   order TX TY TZ RZ RY RX
   axis XYZ
   position 0 0 0  
   orientation 0 -0 0 
:bonedata
  begin
     id 1 
     name lhipjoint
     direction 0.961525 -0.229516 0.150972 
     length 0.502153 
     axis 0 -0 0  XYZ
  end
  begin
     id 2 
     name lfemur
     direction 0.173648 -0.984808 0  
     length 1.83052  
     axis 0 -0 10  XYZ
    dof rx ry rz
    limits (-180.0 180.0)
           (-180.0 180.0)
           (-180.0 180.0)
  end
  begin
     id 3 
     name ltibia
     direction 0.173629 -0.984811 0   
     length 1.50296   
     axis 0 -0 10   XYZ
    dof rx ry rz
    limits (-180.0 180.0)
           (-180.0 180.0)
           (-180.0 180.0)
  end
  begin
     id 4 
     name lfoot
     direction 7.59329e-012 -0.227408 0.9738   
     length 0.574743   
     axis -90 -1.73656e-015 10   XYZ
    dof rx ry rz
    limits (-180.0 180.0)
           (-180.0 180.0)
           (-180.0 180.0)
  end
  begin
     id 5 
     name ltoes
     direction 7.79885e-012 -4.41741e-011 1   
     length 0.28489   
     axis -90 -1.73656e-015 10   XYZ
    dof rx ry rz
    limits (-180.0 180.0)
           (-180.0 180.0)
           (-180.0 180.0)
  end
  begin
     id 6 
     name rhipjoint
     direction -0.970498 -0.201437 0.132502   
     length 0.572149  
     axis 0 -0 0  XYZ 
  end
  begin
     id 7 
     name rfemur
     direction -0.173648 -0.984808 0   
     length 1.71866   
     axis 0 -0 -10   XYZ
    dof rx ry rz
    limits (-180.0 180.0)
           (-180.0 180.0)
           (-180.0 180.0)
  end
  begin
     id 8 
     name rtibia
     direction -0.173624 -0.984812 0   
     length 1.42623   
     axis 0 -0 -10   XYZ
    dof rx ry rz
    limits (-180.0 180.0)
           (-180.0 180.0)
           (-180.0 180.0)
 end
 begin
     id 9 
     name rfoot
     direction -7.12931e-012 -0.404275 0.914637   
     length 0.524692  
     axis -90 1.73656e-015 -10   XYZ
    dof rx ry rz
    limits (-180.0 180.0)
           (-180.0 180.0)
           (-180.0 180.0)
  end
  begin
     id 10 
     name rtoes
     direction -7.79289e-012 -4.41454e-011 1   
     length 0.254983   
     axis -90 1.73656e-015 -10   XYZ
    dof rx ry rz
    limits (-180.0 180.0)
           (-180.0 180.0)
           (-180.0 180.0)
  end
  begin
     id 11 
     name lowerback
     direction -0.0214086 0.993738 0.109665   
     length 0.417614   
     axis 0 -0 0   XYZ
    dof rx ry rz
    limits (-180.0 180.0)
           (-180.0 180.0)
           (-180.0 180.0)
  end
  begin
     id 12 
     name upperback
     direction 8.15962e-005 0.99996 0.00893412   
     length 0.419234   
     axis 0 -0 0   XYZ
    dof rx ry rz
    limits (-180.0 180.0)
           (-180.0 180.0)
           (-180.0 180.0)
  end
  begin
     id 13 
     name thorax
     direction 0.00826031 0.999067 -0.0423848   
     length 0.424697   
     axis 0 -0 0   XYZ
    dof rx ry rz
    limits (-180.0 180.0)
           (-180.0 180.0)
           (-180.0 180.0)
  end
  begin
     id 14 
     name lowerneck
     direction -0.0196262 0.994272 -0.105058   
     length 0.355877   
     axis 0 -0 0   XYZ
    dof rx ry rz
    limits (-180.0 180.0)
           (-180.0 180.0)
           (-180.0 180.0)
  end
  begin
     id 15 
     name upperneck
     direction 0.000117372 0.999091 0.0426261   
     length 0.351054   
     axis 0 -0 0   XYZ
    dof rx ry rz
    limits (-180.0 180.0)
           (-180.0 180.0)
           (-180.0 180.0)
  end
  begin
     id 16
     name head
     direction 0.00157618 0.999651 0.0263619  
     length 0.374844  
     axis 0 -0 0   XYZ
    dof rx ry rz
    limits (-180.0 180.0)
           (-180.0 180.0)
           (-180.0 180.0)
  end
  begin
     id 17 
     name lshoulderjoint
     direction 0.981627 -0.190809 0  
     length 0.701763  
     axis 0 -0 -11   XYZ
    dof rx ry rz
    limits (-180.0 180.0)
           (-180.0 180.0)
           (-180.0 180.0)
  end
  begin
     id 18 
     name lhumerus
     direction 0.48481 -0.87462 -1.80676e-026   
     length 0.994704   
     axis -180 5.14477e-009 -151   XYZ
    dof rx ry rz
    limits (-180.0 180.0)
           (-180.0 180.0)
           (-180.0 180.0)
  end
  begin
     id 19
     name lradius
     direction 0.48481 -0.87462 -3.2569e-026   
     length 0.617638   
     axis -180 5.14477e-009 -151   XYZ
    dof rx ry rz
    limits (-180.0 180.0)
           (-180.0 180.0)
           (-180.0 180.0)
  end
  begin
     id 20
     name lwrist
     direction 0.48481 -0.87462 -6.73202e-026   
     length 0.308819   
     axis -180 5.14477e-009 -151   XYZ
    dof rx ry rz
    limits (-180.0 180.0)
           (-180.0 180.0)
           (-180.0 180.0)
  end
  begin
     id 21 
     name lhand
     direction 0.478366 -0.863761 -0.158376   
     length 0.291656   
     axis -180 5.14477e-009 -151   XYZ
    dof rx ry rz
    limits (-180.0 180.0)
           (-180.0 180.0)
           (-180.0 180.0)
  end
  begin
     id 22 
     name rshoulderjoint
     direction -0.981627 -0.190809 0   
     length 0.66654  
     axis 0 -0 11   XYZ 
    dof rx ry rz
    limits (-180.0 180.0)
           (-180.0 180.0)
           (-180.0 180.0)
  end
  begin
     id 23 
     name rhumerus
     direction -0.48481 -0.87462 1.77576e-026  
     length 1.15089   
     axis 180 5.14477e-009 151   XYZ
    dof rx ry rz
    limits (-180.0 180.0)
           (-180.0 180.0)
           (-180.0 180.0)
  end
  begin
     id 24 
     name rradius
     direction -0.48481 -0.87462 3.79421e-026   
     length 0.613887   
     axis 180 5.14477e-009 151   XYZ
    dof rx ry rz
    limits (-180.0 180.0)
           (-180.0 180.0)
           (-180.0 180.0)
  end
  begin
     id 25 
     name rwrist
     direction -0.48481 -0.87462 5.43623e-026   
     length 0.306944   
     axis 180 5.14477e-009 151   XYZ
    dof rx ry rz
    limits (-180.0 180.0)
           (-180.0 180.0)
           (-180.0 180.0)
  end
  begin
     id 26
     name rhand
     direction -0.479273 -0.864638 -0.150661   
     length 0.306429   
     axis 180 5.14477e-009 151   XYZ
    dof rx ry rz
    limits (-180.0 180.0)
           (-180.0 180.0)
           (-180.0 180.0)
  end
:hierarchy
  begin
    root lhipjoint rhipjoint lowerback 
    lhipjoint lfemur
    lfemur ltibia
    ltibia lfoot
    lfoot ltoes
    rhipjoint rfemur
    rfemur rtibia
    rtibia rfoot
    rfoot rtoes
    lowerback upperback
    upperback thorax
    thorax lowerneck lshoulderjoint rshoulderjoint
    lowerneck upperneck
    upperneck head
    lshoulderjoint lhumerus
    lhumerus lradius
    lradius lwrist
    lwrist lhand
    rshoulderjoint rhumerus
    rhumerus rradius
    rradius rwrist
    rwrist rhand
  end

:FULLY-SPECIFIED
:DEGREES
1776
root 7.83342 3.57332 -0.263863 -45.3757 76.0317 51.9523
lowerback -11.7891 -2.08782 -6.29465
upperback -3.83068 -1.90184 -0.153637
thorax 2.78665 -0.883298 3.11869
lowerneck 11.9019 3.27335 -0.449989
upperneck -2.96301 4.35236 0.597029
head -3.07157 2.15099 -0.00185558
rshoulderjoint 1.1168 -2.91398 -31.9803
rhumerus -4.92311 -11.7853 -55.5748
rradius 34.537 -2.8625e-014 2.52457e-014
rwrist -1.03032e-013 8.94747 9.98118e-014
rhand 10.6078 -7.91546 29.4831
lshoulderjoint 2.79249 9.4423 27.5583
lhumerus 6.16441 6.27749 51.2215
lradius 31.5632 1.06946e-013 -3.18055e-015
lwrist -1.6635e-013 -12.8117 -1.53303e-013
lhand 19.8674 11.8013 -24.3826
rfemur -29.5511 8.71031 7.21681
rtibia 46.0473 -4.17448e-015 -7.95139e-016
rfoot -8.26999 13.6376 -23.3775
rtoes 2.8625e-014 -1.59028e-014 1.27222e-013
lfemur -13.3225 -6.02309 -19.6527
ltibia 2.18663e-015 3.33958e-014 1.03368e-014
lfoot 3.38259 -3.64224 12.7905
ltoes -3.81667e-014 -4.09993e-016 -4.75095e-014
1777
root 7.8522 3.57598 -0.262243 -46.003 76.1335 52.4315
lowerback -11.6773 -2.19284 -6.2122
upperback -3.7224 -2.06198 -0.11522
thorax 2.85404 -0.969578 3.08995
lowerneck 11.6989 3.33753 -0.382403
upperneck -3.07251 4.44535 0.569952
head -3.0686 2.19645 -0.0255838
rshoulderjoint 1.09029 -2.83273 -32.0613
rhumerus -5.25514 -12.5642 -55.5938
rradius 33.8072 -2.29e-013 1.03169e-013
rwrist -3.38096e-013 8.97302 4.66894e-013
rhand 10.8484 -7.96484 29.2008
lshoulderjoint 2.76481 9.28558 27.662
lhumerus 6.64624 5.92757 51.1332
lradius 32.5277 9.62118e-014 -6.75868e-014
lwrist -2.22066e-013 -13.1104 -2.62887e-013
lhand 19.5559 11.934 -24.7437
rfemur -29.3392 8.78031 7.1785
rtibia 43.4067 2.50966e-014 -3.18055e-015
rfoot -8.29072 13.335 -22.7115
rtoes -1.7175e-013 1.77316e-013 -1.62208e-013
lfemur -13.0098 -6.19307 -19.5396
ltibia 3.18055e-015 -1.27222e-014 -3.49861e-014
lfoot 3.14126 -4.36221 12.6777
ltoes 7.15625e-015 8.38933e-014 1.03169e-013
1778
root 7.87059 3.57842 -0.260179 -46.6956 76.2272 52.9809
lowerback -11.5674 -2.27691 -6.13145
upperback -3.62252 -2.19455 -0.0616546
thorax 2.91124 -1.04144 3.08226
lowerneck 11.4425 3.38459 -0.440934
upperneck -3.12796 4.50169 0.610356
head -3.0417 2.2233 -0.00131307
rshoulderjoint 1.12249 -2.89233 -32.2215
rhumerus -5.54639 -13.398 -55.6721
rradius 33.1104 -1.20861e-013 7.97127e-014
rwrist -2.44745e-013 9.01456 2.99491e-013
rhand 11.0919 -7.9482 28.8872
lshoulderjoint 2.73314 9.13235 27.7403
lhumerus 7.27049 5.23198 51.0382
lradius 33.4909 4.83047e-014 -1.43125e-014
lwrist -1.82795e-013 -12.9989 -1.17511e-013
lhand 19.1254 11.849 -25.2895
rfemur -29.0655 8.90804 7.11373
rtibia 40.6764 1.52319e-014 -7.15625e-015
rfoot -8.17008 13.2788 -22.0167
rtoes 2.22639e-014 1.4074e-013 -6.04305e-014
lfemur -12.7263 -6.36989 -19.4233
ltibia -3.4191e-014 6.36111e-015 -2.8625e-014
lfoot 2.82426 -4.1234 12.7886
ltoes 6.59965e-014 8.3943e-014 2.52457e-014
1779
root 7.8888 3.58044 -0.258021 -47.6522 76.3296 53.7743
lowerback -11.526 -2.39807 -6.04475
upperback -3.53261 -2.37002 -0.0311891
thorax 2.99833 -1.13448 3.03896
lowerneck 11.369 3.42666 -0.332199
upperneck -3.30614 4.57216 0.597436
head -3.08631 2.2558 -0.0294554
rshoulderjoint 1.09988 -2.83497 -32.2151
rhumerus -5.8631 -14.208 -55.6435
rradius 32.4526 2.76708e-013 1.95803e-014
rwrist -1.80347e-013 9.0314 -2.35095e-013
rhand 11.232 -8.01184 28.6408
lshoulderjoint 2.72493 9.0199 27.8874
lhumerus 7.7857 4.77303 50.9548
lradius 34.3748 -1.03368e-013 2.09917e-013
lwrist -2.4492e-013 -13.1048 4.16364e-013
lhand 18.8277 11.8848 -25.7482
rfemur -28.6859 8.9548 7.08568
rtibia 37.8381 -1.78906e-015 -7.15625e-015
rfoot -8.01675 13.3092 -21.2465
rtoes -2.54444e-014 9.30312e-014 2.54444e-014
lfemur -12.475 -6.59778 -19.2744
ltibia 1.21259e-014 1.59028e-015 -1.19271e-014
lfoot 2.5649 -4.24083 12.8107
ltoes -4.81059e-014 3.721e-014 -3.43897e-014
1780
root 7.90699 3.58221 -0.255534 -48.6216 76.4218 54.5746
lowerback -11.5022 -2.51443 -5.94574
upperback -3.45687 -2.54009 0.019512
thorax 3.07972 -1.22398 3.01025
lowerneck 11.2744 3.47354 -0.35249
upperneck -3.42148 4.63607 0.665702
head -3.11089 2.28414 -0.00720855
rshoulderjoint 1.12084 -2.88058 -32.2717
rhumerus -6.12996 -14.9958 -55.634
rradius 31.8259 8.90555e-014 6.06293e-014
rwrist 2.89867e-014 9.06105 3.22075e-015
rhand 11.3244 -8.00553 28.3659
lshoulderjoint 2.70421 8.90652 27.9656
lhumerus 8.19715 4.34702 50.8495
lradius 35.215 1.8223e-014 4.13472e-014
lwrist -4.25014e-014 -13.3832 3.02414e-014
lhand 18.5534 12.1194 -26.2125
rfemur -28.3008 9.13853 6.9577
rtibia 34.9799 -3.47873e-015 0
rfoot -7.71092 12.4924 -20.4137
rtoes -7.95139e-015 -1.145e-013 -3.18055e-015
lfemur -12.234 -6.81948 -19.1152
ltibia -1.49089e-015 -4.77083e-015 7.95139e-015
lfoot 2.35383 -4.44672 12.8878
ltoes 5.48646e-014 -3.75206e-014 3.18055e-015
1781
root 7.92489 3.58386 -0.252917 -49.7298 76.5246 55.5523
lowerback -11.4984 -2.62717 -5.86933
upperback -3.39354 -2.70001 0.0472004
thorax 3.1576 -1.30755 2.97106
lowerneck 11.2037 3.50948 -0.364539
upperneck -3.52536 4.68803 0.751678
head -3.13637 2.30579 0.0197724
rshoulderjoint 1.05126 -2.68891 -32.3629
rhumerus -6.54809 -16.0447 -55.6409
rradius 31.2691 1.81292e-013 1.34229e-013
rwrist 3.86259e-014 8.8439 3.21882e-014
rhand 11.5459 -7.85508 28.0765
lshoulderjoint 2.68392 8.7863 28.0608
lhumerus 8.63426 3.94056 50.787
lradius 36.0297 8.05078e-014 2.22639e-014
lwrist -2.2243e-013 -13.5069 -1.12033e-013
lhand 18.3854 12.179 -26.6099
rfemur -27.8027 8.89913 6.95225
rtibia 32.1043 1.8487e-014 1.59028e-015
rfoot -7.59812 12.5085 -19.2576
rtoes 6.83819e-014 1.54257e-013 -1.08139e-013
lfemur -12.0065 -7.07966 -18.984
ltibia -4.98204e-014 -4.77083e-015 -2.38542e-014
lfoot 2.15397 -4.57417 12.9115
ltoes 9.93923e-014 4.70312e-014 3.75703e-014
